<?xml version="1.0" encoding="iso-8859-1"?>
<!-- Generator: Adobe Illustrator 17.1.0, SVG Export Plug-In . SVG Version: 6.00 Build 0)  -->
<!DOCTYPE svg PUBLIC "-//W3C//DTD SVG 1.1//EN" "http://www.w3.org/Graphics/SVG/1.1/DTD/svg11.dtd">
<svg version="1.1" id="Capa_1" xmlns="http://www.w3.org/2000/svg" xmlns:xlink="http://www.w3.org/1999/xlink" x="0px" y="0px"
	 viewBox="0 0 200.956 200.956" style="enable-background:new 0 0 200.956 200.956;" xml:space="preserve">
<path d="M126.188,162.934h-3.194c-1.104,0-2-0.896-2-2s0.896-2,2-2h3.194c8.966,0,16.26-7.294,16.26-16.26
	s-7.294-16.261-16.26-16.261H15.033c-1.104,0-2-0.896-2-2s0.896-2,2-2h111.155c11.171,0,20.26,9.089,20.26,20.261
	C146.448,153.845,137.359,162.934,126.188,162.934z M89.602,153.934c-1.104,0-2-0.896-2-2c0-8.161-6.64-14.801-14.801-14.801H48.555
	c-1.104,0-2-0.896-2-2s0.896-2,2-2h24.246c10.367,0,18.801,8.434,18.801,18.801C91.602,153.039,90.707,153.934,89.602,153.934z
	 M198.956,126.414h-42.244c-1.104,0-2-0.896-2-2s0.896-2,2-2h42.244c1.104,0,2,0.896,2,2S200.061,126.414,198.956,126.414z
	 M161.784,116.366H2c-1.104,0-2-0.896-2-2s0.896-2,2-2h159.784c19.394,0,35.172-15.778,35.172-35.172s-15.778-35.172-35.172-35.172
	h-5.072c-1.104,0-2-0.896-2-2s0.896-2,2-2h5.072c21.6,0,39.172,17.572,39.172,39.172S183.384,116.366,161.784,116.366z
	 M155.692,105.701H17.213c-1.104,0-2-0.896-2-2s0.896-2,2-2h138.479c10.28,0,18.643-8.363,18.643-18.643v-1.504
	c0-10.279-8.363-18.643-18.643-18.643h-1.503c-10.28,0-18.643,8.363-18.643,18.643c0,1.104-0.896,2-2,2s-2-0.896-2-2
	c0-12.485,10.158-22.643,22.643-22.643h1.503c12.485,0,22.643,10.157,22.643,22.643v1.504
	C178.335,95.543,168.178,105.701,155.692,105.701z M100.569,96.162H48.555c-1.104,0-2-0.896-2-2s0.896-2,2-2h52.014
	c1.104,0,2,0.896,2,2S101.673,96.162,100.569,96.162z"/>

</svg>
